<svg width="18" height="17" viewBox="0 0 18 17" fill="none" xmlns="http://www.w3.org/2000/svg">
<path d="M3.7382 1.86357C3.73795 2.35758 3.54079 2.83125 3.19009 3.18039C2.83939 3.52953 2.36388 3.72553 1.86816 3.72528C1.37245 3.72504 0.897134 3.52856 0.546785 3.17907C0.196437 2.82958 -0.000247624 2.35571 2.33975e-07 1.86171C0.000248092 1.36771 0.197408 0.894035 0.548107 0.544897C0.898806 0.195758 1.37432 -0.000246768 1.87003 2.33167e-07C2.36575 0.000247235 2.84106 0.196726 3.19141 0.546214C3.54176 0.895702 3.73844 1.36957 3.7382 1.86357ZM3.79427 5.10457H0.0560731V16.7647H3.79427V5.10457ZM9.70062 5.10457H5.98111V16.7647H9.66323V10.6459C9.66323 7.23729 14.121 6.92065 14.121 10.6459V16.7647H17.8125V9.37933C17.8125 3.63308 11.2146 3.84729 9.66323 6.66919L9.70062 5.10457Z" fill="white"/>
</svg>
