<svg width="22" height="16" viewBox="0 0 22 16" fill="none" xmlns="http://www.w3.org/2000/svg">
<path d="M19.8482 0H1.52679C1.12186 0 0.733513 0.162645 0.447185 0.452154C0.160857 0.741663 0 1.13432 0 1.54375V13.8938C0 14.3032 0.160857 14.6958 0.447185 14.9853C0.733513 15.2749 1.12186 15.4375 1.52679 15.4375H19.8482C20.2531 15.4375 20.6415 15.2749 20.9278 14.9853C21.2141 14.6958 21.375 14.3032 21.375 13.8938V1.54375C21.375 1.13432 21.2141 0.741663 20.9278 0.452154C20.6415 0.162645 20.2531 0 19.8482 0ZM18.1687 1.54375L10.6875 6.77706L3.20625 1.54375H18.1687ZM1.52679 13.8938V2.24616L10.2524 8.35169C10.3802 8.44132 10.532 8.48936 10.6875 8.48936C10.843 8.48936 10.9948 8.44132 11.1226 8.35169L19.8482 2.24616V13.8938H1.52679Z" fill="white"/>
</svg>
